<?xml version="1.0" encoding="UTF-8" standalone="no"?>
<!DOCTYPE svg PUBLIC "-//W3C//DTD SVG 1.1//EN" "http://www.w3.org/Graphics/SVG/1.1/DTD/svg11.dtd">
<!-- Created with Vectornator (http://vectornator.io/) -->
<svg height="100%" stroke-miterlimit="10" style="fill-rule:nonzero;clip-rule:evenodd;stroke-linecap:round;stroke-linejoin:round;" version="1.1" viewBox="0 0 1024 1024" width="100%" xml:space="preserve" xmlns="http://www.w3.org/2000/svg" xmlns:xlink="http://www.w3.org/1999/xlink">
<defs/>
<g id="Layer-1">
<path d="M144.942 35.801L715.371 34.7692C791.453 34.6315 853.241 96.1968 853.379 172.279L848.648 395.174C848.648 395.174 680.8 428.655 649.485 452.104C618.169 475.553 279.106 881.508 279.106 881.508L146.472 881.748C70.3901 881.885 8.60166 820.32 8.46403 744.238L7.43218 173.809C7.29456 97.727 68.8598 35.9386 144.942 35.801Z" fill="#3d2cff" fill-rule="nonzero" opacity="1" stroke="none"/>
<g opacity="1">
<path d="M710.542 423.517L917.747 379.474C948.768 372.88 979.262 392.682 985.855 423.703L1014.67 559.254C1021.26 590.275 1010.14 635.169 989.835 659.528L795.983 892.035C775.674 916.393 753.857 910.994 747.252 879.975L717.419 739.85C710.815 708.831 680.314 689.031 649.292 695.625L440.652 739.973C409.63 746.567 401.166 732.351 421.745 708.221L617.11 479.148C637.69 455.018 679.52 430.111 710.542 423.517Z" fill="#ffb000" fill-rule="nonzero" opacity="1" stroke="none"/>
<path d="M511.781 796.561L645.567 756.068C654.574 753.342 661.674 758.758 661.426 768.165L657.851 903.522C657.602 912.929 650.589 923.989 642.186 928.225L451.771 989.23C451.771 989.23 438.484 989.519 440.863 980.414L491.166 817.983C493.545 808.878 502.774 799.288 511.781 796.561Z" fill="#ffb000" fill-rule="nonzero" opacity="1" stroke="none"/>
</g>
<g opacity="1">
<path d="M224.72 613.545L171.4 190.791L265.443 190.791L295.033 513.349L300.306 513.349L462.611 190.791L562.22 190.791L331.654 613.545L224.72 613.545Z" fill="#ffffff" fill-rule="nonzero" opacity="1" stroke="none"/>
<path d="M466.823 190.818L645.744 190.818L613.136 270.818L466.823 270.818L466.823 190.818Z" fill="#ffffff" fill-rule="nonzero" opacity="1" stroke="none"/>
</g>
</g>
</svg>
