<svg height="100%" stroke-miterlimit="10" style="fill-rule:nonzero;clip-rule:evenodd;stroke-linecap:round;stroke-linejoin:round;" version="1.1" viewBox="0 0 4508.18 974.968" width="100%" xml:space="preserve" xmlns="http://www.w3.org/2000/svg" xmlns:xlink="http://www.w3.org/1999/xlink">
    <defs/>
    <g id="Layer-1">
        <g fill="#ffffff" opacity="1" stroke="none">
            <path d="M1445.33 666.484L1292.33 316.484L1362.83 316.484L1499.33 632.984L1458.83 632.984L1596.83 316.484L1661.83 316.484L1509.33 666.484L1445.33 666.484Z"/>
            <path d="M1685.33 666.484L1685.33 399.484L1747.83 399.484L1747.83 666.484L1685.33 666.484ZM1716.83 355.484C1705.16 355.484 1695.58 351.817 1688.08 344.484C1680.58 337.151 1676.83 328.317 1676.83 317.984C1676.83 307.317 1680.58 298.401 1688.08 291.234C1695.58 284.067 1705.16 280.484 1716.83 280.484C1728.49 280.484 1738.08 283.901 1745.58 290.734C1753.08 297.567 1756.83 306.151 1756.83 316.484C1756.83 327.484 1753.16 336.734 1745.83 344.234C1738.49 351.734 1728.83 355.484 1716.83 355.484Z"/>
            <path d="M1902.33 669.984C1879.99 669.984 1858.58 667.067 1838.08 661.234C1817.58 655.401 1801.33 648.317 1789.33 639.984L1813.33 592.484C1825.33 600.151 1839.66 606.484 1856.33 611.484C1872.99 616.484 1889.66 618.984 1906.33 618.984C1925.99 618.984 1940.24 616.317 1949.08 610.984C1957.91 605.651 1962.33 598.484 1962.33 589.484C1962.33 582.151 1959.33 576.567 1953.33 572.734C1947.33 568.901 1939.49 565.984 1929.83 563.984C1920.16 561.984 1909.41 560.151 1897.58 558.484C1885.74 556.817 1873.91 554.567 1862.08 551.734C1850.24 548.901 1839.49 544.734 1829.83 539.234C1820.16 533.734 1812.33 526.317 1806.33 516.984C1800.33 507.651 1797.33 495.317 1797.33 479.984C1797.33 462.984 1802.16 448.234 1811.83 435.734C1821.49 423.234 1835.08 413.567 1852.58 406.734C1870.08 399.901 1890.83 396.484 1914.83 396.484C1932.83 396.484 1950.99 398.484 1969.33 402.484C1987.66 406.484 2002.83 412.151 2014.83 419.484L1990.83 466.984C1978.16 459.317 1965.41 454.067 1952.58 451.234C1939.74 448.401 1926.99 446.984 1914.33 446.984C1895.33 446.984 1881.24 449.817 1872.08 455.484C1862.91 461.151 1858.33 468.317 1858.33 476.984C1858.33 484.984 1861.33 490.984 1867.33 494.984C1873.33 498.984 1881.16 502.151 1890.83 504.484C1900.49 506.817 1911.24 508.734 1923.08 510.234C1934.91 511.734 1946.66 513.984 1958.33 516.984C1969.99 519.984 1980.74 524.067 1990.58 529.234C2000.41 534.401 2008.33 541.651 2014.33 550.984C2020.33 560.317 2023.33 572.484 2023.33 587.484C2023.33 604.151 2018.41 618.651 2008.58 630.984C1998.74 643.317 1984.83 652.901 1966.83 659.734C1948.83 666.567 1927.33 669.984 1902.33 669.984Z"/>
            <path d="M2067.33 666.484L2067.33 399.484L2129.83 399.484L2129.83 666.484L2067.33 666.484ZM2098.83 355.484C2087.16 355.484 2077.58 351.817 2070.08 344.484C2062.58 337.151 2058.83 328.317 2058.83 317.984C2058.83 307.317 2062.58 298.401 2070.08 291.234C2077.58 284.067 2087.16 280.484 2098.83 280.484C2110.49 280.484 2120.08 283.901 2127.58 290.734C2135.08 297.567 2138.83 306.151 2138.83 316.484C2138.83 327.484 2135.16 336.734 2127.83 344.234C2120.49 351.734 2110.83 355.484 2098.83 355.484Z"/>
            <path d="M2321.83 669.984C2294.49 669.984 2270.16 664.067 2248.83 652.234C2227.49 640.401 2210.66 624.151 2198.33 603.484C2185.99 582.817 2179.83 559.317 2179.83 532.984C2179.83 506.317 2185.99 482.734 2198.33 462.234C2210.66 441.734 2227.49 425.651 2248.83 413.984C2270.16 402.317 2294.49 396.484 2321.83 396.484C2349.49 396.484 2374.08 402.317 2395.58 413.984C2417.08 425.651 2433.91 441.651 2446.08 461.984C2458.24 482.317 2464.33 505.984 2464.33 532.984C2464.33 559.317 2458.24 582.817 2446.08 603.484C2433.91 624.151 2417.08 640.401 2395.58 652.234C2374.08 664.067 2349.49 669.984 2321.83 669.984ZM2321.83 616.484C2337.16 616.484 2350.83 613.151 2362.83 606.484C2374.83 599.817 2384.24 590.151 2391.08 577.484C2397.91 564.817 2401.33 549.984 2401.33 532.984C2401.33 515.651 2397.91 500.734 2391.08 488.234C2384.24 475.734 2374.83 466.151 2362.83 459.484C2350.83 452.817 2337.33 449.484 2322.33 449.484C2306.99 449.484 2293.41 452.817 2281.58 459.484C2269.74 466.151 2260.33 475.734 2253.33 488.234C2246.33 500.734 2242.83 515.651 2242.83 532.984C2242.83 549.984 2246.33 564.817 2253.33 577.484C2260.33 590.151 2269.74 599.817 2281.58 606.484C2293.41 613.151 2306.83 616.484 2321.83 616.484Z"/>
            <path d="M2665.83 396.484C2687.16 396.484 2706.24 400.651 2723.08 408.984C2739.91 417.317 2753.16 430.067 2762.83 447.234C2772.49 464.401 2777.33 486.484 2777.33 513.484L2777.33 666.484L2714.83 666.484L2714.83 521.484C2714.83 497.817 2709.24 480.151 2698.08 468.484C2686.91 456.817 2671.33 450.984 2651.33 450.984C2636.66 450.984 2623.66 453.984 2612.33 459.984C2600.99 465.984 2592.24 474.901 2586.08 486.734C2579.91 498.567 2576.83 513.484 2576.83 531.484L2576.83 666.484L2514.33 666.484L2514.33 399.484L2573.83 399.484L2573.83 471.484L2563.33 449.484C2572.66 432.484 2586.24 419.401 2604.08 410.234C2621.91 401.067 2642.49 396.484 2665.83 396.484Z"/>
            <path d="M2972.83 669.984C2943.16 669.984 2917.24 664.067 2895.08 652.234C2872.91 640.401 2855.74 624.151 2843.58 603.484C2831.41 582.817 2825.33 559.317 2825.33 532.984C2825.33 506.317 2831.24 482.734 2843.08 462.234C2854.91 441.734 2871.24 425.651 2892.08 413.984C2912.91 402.317 2936.66 396.484 2963.33 396.484C2989.33 396.484 3012.49 402.151 3032.83 413.484C3053.16 424.817 3069.16 440.817 3080.83 461.484C3092.49 482.151 3098.33 506.484 3098.33 534.484C3098.33 537.151 3098.24 540.151 3098.08 543.484C3097.91 546.817 3097.66 549.984 3097.33 552.984L2874.83 552.984L2874.83 511.484L3064.33 511.484L3039.83 524.484C3040.16 509.151 3036.99 495.651 3030.33 483.984C3023.66 472.317 3014.58 463.151 3003.08 456.484C2991.58 449.817 2978.33 446.484 2963.33 446.484C2947.99 446.484 2934.58 449.817 2923.08 456.484C2911.58 463.151 2902.58 472.401 2896.08 484.234C2889.58 496.067 2886.33 509.984 2886.33 525.984L2886.33 535.984C2886.33 551.984 2889.99 566.151 2897.33 578.484C2904.66 590.817 2914.99 600.317 2928.33 606.984C2941.66 613.651 2956.99 616.984 2974.33 616.984C2989.33 616.984 3002.83 614.651 3014.83 609.984C3026.83 605.317 3037.49 597.984 3046.83 587.984L3080.33 626.484C3068.33 640.484 3053.24 651.234 3035.08 658.734C3016.91 666.234 2996.16 669.984 2972.83 669.984Z"/>
            <path d="M3273.83 669.984C3244.16 669.984 3218.24 664.067 3196.08 652.234C3173.91 640.401 3156.74 624.151 3144.58 603.484C3132.41 582.817 3126.33 559.317 3126.33 532.984C3126.33 506.317 3132.24 482.734 3144.08 462.234C3155.91 441.734 3172.24 425.651 3193.08 413.984C3213.91 402.317 3237.66 396.484 3264.33 396.484C3290.33 396.484 3313.49 402.151 3333.83 413.484C3354.16 424.817 3370.16 440.817 3381.83 461.484C3393.49 482.151 3399.33 506.484 3399.33 534.484C3399.33 537.151 3399.24 540.151 3399.08 543.484C3398.91 546.817 3398.66 549.984 3398.33 552.984L3175.83 552.984L3175.83 511.484L3365.33 511.484L3340.83 524.484C3341.16 509.151 3337.99 495.651 3331.33 483.984C3324.66 472.317 3315.58 463.151 3304.08 456.484C3292.58 449.817 3279.33 446.484 3264.33 446.484C3248.99 446.484 3235.58 449.817 3224.08 456.484C3212.58 463.151 3203.58 472.401 3197.08 484.234C3190.58 496.067 3187.33 509.984 3187.33 525.984L3187.33 535.984C3187.33 551.984 3190.99 566.151 3198.33 578.484C3205.66 590.817 3215.99 600.317 3229.33 606.984C3242.66 613.651 3257.99 616.984 3275.33 616.984C3290.33 616.984 3303.83 614.651 3315.83 609.984C3327.83 605.317 3338.49 597.984 3347.83 587.984L3381.33 626.484C3369.33 640.484 3354.24 651.234 3336.08 658.734C3317.91 666.234 3297.16 669.984 3273.83 669.984Z"/>
            <path d="M3449.33 666.484L3449.33 399.484L3508.83 399.484L3508.83 472.984L3501.83 451.484C3509.83 433.484 3522.41 419.817 3539.58 410.484C3556.74 401.151 3578.16 396.484 3603.83 396.484L3603.83 455.984C3601.16 455.317 3598.66 454.901 3596.33 454.734C3593.99 454.567 3591.66 454.484 3589.33 454.484C3565.66 454.484 3546.83 461.401 3532.83 475.234C3518.83 489.067 3511.83 509.651 3511.83 536.984L3511.83 666.484L3449.33 666.484Z"/>
            <path d="M3650.33 666.484L3650.33 316.484L3715.33 316.484L3715.33 611.484L3898.33 611.484L3898.33 666.484L3650.33 666.484Z"/>
            <path d="M3933.83 666.484L3933.83 399.484L3996.33 399.484L3996.33 666.484L3933.83 666.484ZM3965.33 355.484C3953.66 355.484 3944.08 351.817 3936.58 344.484C3929.08 337.151 3925.33 328.317 3925.33 317.984C3925.33 307.317 3929.08 298.401 3936.58 291.234C3944.08 284.067 3953.66 280.484 3965.33 280.484C3976.99 280.484 3986.58 283.901 3994.08 290.734C4001.58 297.567 4005.33 306.151 4005.33 316.484C4005.33 327.484 4001.66 336.734 3994.33 344.234C3986.99 351.734 3977.33 355.484 3965.33 355.484Z"/>
            <path d="M4150.83 669.984C4128.49 669.984 4107.08 667.067 4086.58 661.234C4066.08 655.401 4049.83 648.317 4037.83 639.984L4061.83 592.484C4073.83 600.151 4088.16 606.484 4104.83 611.484C4121.49 616.484 4138.16 618.984 4154.83 618.984C4174.49 618.984 4188.74 616.317 4197.58 610.984C4206.41 605.651 4210.83 598.484 4210.83 589.484C4210.83 582.151 4207.83 576.567 4201.83 572.734C4195.83 568.901 4187.99 565.984 4178.33 563.984C4168.66 561.984 4157.91 560.151 4146.08 558.484C4134.24 556.817 4122.41 554.567 4110.58 551.734C4098.74 548.901 4087.99 544.734 4078.33 539.234C4068.66 533.734 4060.83 526.317 4054.83 516.984C4048.83 507.651 4045.83 495.317 4045.83 479.984C4045.83 462.984 4050.66 448.234 4060.33 435.734C4069.99 423.234 4083.58 413.567 4101.08 406.734C4118.58 399.901 4139.33 396.484 4163.33 396.484C4181.33 396.484 4199.49 398.484 4217.83 402.484C4236.16 406.484 4251.33 412.151 4263.33 419.484L4239.33 466.984C4226.66 459.317 4213.91 454.067 4201.08 451.234C4188.24 448.401 4175.49 446.984 4162.83 446.984C4143.83 446.984 4129.74 449.817 4120.58 455.484C4111.41 461.151 4106.83 468.317 4106.83 476.984C4106.83 484.984 4109.83 490.984 4115.83 494.984C4121.83 498.984 4129.66 502.151 4139.33 504.484C4148.99 506.817 4159.74 508.734 4171.58 510.234C4183.41 511.734 4195.16 513.984 4206.83 516.984C4218.49 519.984 4229.24 524.067 4239.08 529.234C4248.91 534.401 4256.83 541.651 4262.83 550.984C4268.83 560.317 4271.83 572.484 4271.83 587.484C4271.83 604.151 4266.91 618.651 4257.08 630.984C4247.24 643.317 4233.33 652.901 4215.33 659.734C4197.33 666.567 4175.83 669.984 4150.83 669.984Z"/>
            <path d="M4416.33 669.984C4386.99 669.984 4364.33 662.401 4348.33 647.234C4332.33 632.067 4324.33 609.651 4324.33 579.984L4324.33 340.484L4386.83 340.484L4386.83 578.484C4386.83 591.151 4390.08 600.984 4396.58 607.984C4403.08 614.984 4412.16 618.484 4423.83 618.484C4437.83 618.484 4449.49 614.817 4458.83 607.484L4476.33 651.984C4468.99 657.984 4459.99 662.484 4449.33 665.484C4438.66 668.484 4427.66 669.984 4416.33 669.984ZM4280.33 451.484L4280.33 401.484L4458.33 401.484L4458.33 451.484L4280.33 451.484Z"/>
        </g>
        <g opacity="1">
            <path d="M144.942 11.285L715.371 10.2531C791.453 10.1155 853.241 71.6808 853.379 147.763L848.648 370.658C848.648 370.658 680.8 404.139 649.485 427.588C618.169 451.037 279.106 856.992 279.106 856.992L146.472 857.232C70.3901 857.369 8.60166 795.804 8.46403 719.722L7.43218 149.293C7.29456 73.211 68.8598 11.4226 144.942 11.285Z" fill="#3d2cff" fill-rule="nonzero" opacity="1" stroke="none"/>
            <g opacity="1">
                <path d="M710.542 399.001L917.747 354.958C948.768 348.364 979.262 368.166 985.855 399.187L1014.67 534.738C1021.26 565.759 1010.14 610.653 989.835 635.012L795.983 867.518C775.674 891.877 753.857 886.478 747.252 855.459L717.419 715.334C710.815 684.315 680.314 664.515 649.292 671.109L440.652 715.457C409.63 722.051 401.166 707.835 421.745 683.705L617.11 454.632C637.69 430.502 679.52 405.595 710.542 399.001Z" fill="#ffb000" fill-rule="nonzero" opacity="1" stroke="none"/>
                <path d="M511.781 772.045L645.567 731.552C654.574 728.826 661.674 734.242 661.426 743.649L657.851 879.006C657.602 888.413 650.589 899.473 642.186 903.709L451.771 964.714C451.771 964.714 438.484 965.003 440.863 955.898L491.166 793.467C493.545 784.362 502.774 774.772 511.781 772.045Z" fill="#ffb000" fill-rule="nonzero" opacity="1" stroke="none"/>
            </g>
            <g opacity="1">
                <path d="M224.72 589.028L171.4 166.275L265.443 166.275L295.033 488.833L300.306 488.833L462.611 166.275L562.22 166.275L331.654 589.028L224.72 589.028Z" fill="#ffffff" fill-rule="nonzero" opacity="1" stroke="none"/>
                <path d="M466.823 166.302L645.744 166.302L613.136 246.302L466.823 246.302L466.823 166.302Z" fill="#ffffff" fill-rule="nonzero" opacity="1" stroke="none"/>
            </g>
        </g>
    </g>
</svg>